<svg width="134" height="38" viewBox="0 0 134 38" fill="none" xmlns="http://www.w3.org/2000/svg">
<g opacity="0.6">
<path opacity="0.6" d="M16.6953 19.9229L0 27.446L16.6953 37.2189L33.3841 27.446L16.6953 19.9229Z" fill="white"/>
</g>
<g opacity="0.45">
<path opacity="0.45" d="M0 27.446L16.6953 37.2188V0L0 27.446Z" fill="white"/>
</g>
<g opacity="0.8">
<path opacity="0.8" d="M16.6953 0V37.2188L33.3841 27.446L16.6953 0Z" fill="white"/>
</g>
<path d="M53.2279 26L51.6283 21.9131H46.4779L44.8958 26H43.3841L48.4642 13.0977H49.721L54.7747 26H53.2279ZM51.1624 20.5684L49.6683 16.5869C49.4749 16.083 49.2757 15.4648 49.0706 14.7324C48.9417 15.2949 48.7572 15.9131 48.5169 16.5869L47.0052 20.5684H51.1624ZM62.8783 24.708H62.7991C62.1253 25.6865 61.1175 26.1758 59.7757 26.1758C58.5159 26.1758 57.5345 25.7451 56.8314 24.8838C56.1341 24.0225 55.7855 22.7979 55.7855 21.21C55.7855 19.6221 56.137 18.3887 56.8402 17.5098C57.5433 16.6309 58.5218 16.1914 59.7757 16.1914C61.0824 16.1914 62.0843 16.666 62.7816 17.6152H62.8958L62.8343 16.9209L62.7991 16.2441V12.3242H64.2581V26H63.0716L62.8783 24.708ZM59.9603 24.9541C60.9564 24.9541 61.6771 24.6846 62.1224 24.1455C62.5736 23.6006 62.7991 22.7246 62.7991 21.5176V21.21C62.7991 19.8447 62.5706 18.8721 62.1136 18.292C61.6624 17.7061 60.9388 17.4131 59.9427 17.4131C59.0872 17.4131 58.431 17.7471 57.974 18.415C57.5228 19.0771 57.2972 20.0146 57.2972 21.2275C57.2972 22.458 57.5228 23.3867 57.974 24.0137C58.4251 24.6406 59.0872 24.9541 59.9603 24.9541ZM79.639 26V19.7334C79.639 18.9658 79.4749 18.3916 79.1468 18.0107C78.8187 17.624 78.3089 17.4307 77.6175 17.4307C76.7093 17.4307 76.0384 17.6914 75.6048 18.2129C75.1712 18.7344 74.9544 19.5371 74.9544 20.6211V26H73.4954V19.7334C73.4954 18.9658 73.3314 18.3916 73.0033 18.0107C72.6751 17.624 72.1624 17.4307 71.4652 17.4307C70.5511 17.4307 69.8802 17.7061 69.4525 18.2568C69.0306 18.8018 68.8197 19.6982 68.8197 20.9463V26H67.3607V16.3672H68.5472L68.7845 17.6855H68.8548C69.1302 17.2168 69.5169 16.8506 70.015 16.5869C70.5189 16.3232 71.0814 16.1914 71.7025 16.1914C73.2083 16.1914 74.1927 16.7363 74.6556 17.8262H74.7259C75.013 17.3223 75.429 16.9238 75.974 16.6309C76.5189 16.3379 77.14 16.1914 77.8372 16.1914C78.9271 16.1914 79.7415 16.4727 80.2806 17.0352C80.8255 17.5918 81.098 18.4854 81.098 19.7158V26H79.639ZM85.5716 26H84.1126V16.3672H85.5716V26ZM83.9896 13.7568C83.9896 13.4229 84.0716 13.1797 84.2357 13.0273C84.3997 12.8691 84.6048 12.79 84.8509 12.79C85.0853 12.79 85.2874 12.8691 85.4574 13.0273C85.6273 13.1855 85.7122 13.4287 85.7122 13.7568C85.7122 14.085 85.6273 14.3311 85.4574 14.4951C85.2874 14.6533 85.0853 14.7324 84.8509 14.7324C84.6048 14.7324 84.3997 14.6533 84.2357 14.4951C84.0716 14.3311 83.9896 14.085 83.9896 13.7568ZM95.2572 26V19.7686C95.2572 18.9834 95.0784 18.3975 94.721 18.0107C94.3636 17.624 93.804 17.4307 93.0423 17.4307C92.0345 17.4307 91.2962 17.7031 90.8275 18.248C90.3587 18.793 90.1243 19.6924 90.1243 20.9463V26H88.6654V16.3672H89.8519L90.0892 17.6855H90.1595C90.4583 17.2109 90.8773 16.8447 91.4163 16.5869C91.9554 16.3232 92.556 16.1914 93.2181 16.1914C94.3783 16.1914 95.2513 16.4727 95.8372 17.0352C96.4232 17.5918 96.7161 18.4854 96.7161 19.7158V26H95.2572Z" fill="white"/>
</svg>
