<svg width="134" height="38" viewBox="0 0 134 38" fill="none" xmlns="http://www.w3.org/2000/svg">
<g opacity="0.6">
<path opacity="0.6" d="M16.6953 19.9229L0 27.446L16.6953 37.2189L33.3841 27.446L16.6953 19.9229Z" fill="white"/>
</g>
<g opacity="0.45">
<path opacity="0.45" d="M0 27.446L16.6953 37.2188V0L0 27.446Z" fill="white"/>
</g>
<g opacity="0.8">
<path opacity="0.8" d="M16.6953 0V37.2188L33.3841 27.446L16.6953 0Z" fill="white"/>
</g>
<path d="M45.1507 26V13.1504H46.6449V24.6465H52.3138V26H45.1507ZM58.3519 26.1758C56.9281 26.1758 55.8031 25.7422 54.9769 24.875C54.1566 24.0078 53.7464 22.8037 53.7464 21.2627C53.7464 19.71 54.1273 18.4766 54.889 17.5625C55.6566 16.6484 56.6849 16.1914 57.974 16.1914C59.181 16.1914 60.1361 16.5898 60.8392 17.3867C61.5423 18.1777 61.8939 19.2236 61.8939 20.5244V21.4473H55.2581C55.2874 22.5781 55.5716 23.4365 56.1107 24.0225C56.6556 24.6084 57.4202 24.9014 58.4046 24.9014C59.4417 24.9014 60.4671 24.6846 61.4808 24.251V25.5518C60.9652 25.7744 60.4759 25.9326 60.013 26.0264C59.556 26.126 59.0023 26.1758 58.3519 26.1758ZM57.9564 17.4131C57.1829 17.4131 56.5648 17.665 56.1019 18.1689C55.6449 18.6729 55.3753 19.3701 55.2933 20.2607H60.3294C60.3294 19.3408 60.1243 18.6377 59.7142 18.1514C59.304 17.6592 58.7181 17.4131 57.9564 17.4131ZM70.6038 23.3721C70.6038 24.2686 70.2699 24.96 69.6019 25.4463C68.9339 25.9326 67.9964 26.1758 66.7894 26.1758C65.512 26.1758 64.5159 25.9736 63.8011 25.5693V24.2158C64.264 24.4502 64.7591 24.6348 65.2865 24.7695C65.8197 24.9043 66.3324 24.9717 66.8245 24.9717C67.5863 24.9717 68.1722 24.8516 68.5824 24.6113C68.9925 24.3652 69.1976 23.9932 69.1976 23.4951C69.1976 23.1201 69.0335 22.8008 68.7054 22.5371C68.3831 22.2676 67.7503 21.9512 66.807 21.5879C65.9105 21.2539 65.2718 20.9639 64.8909 20.7178C64.5159 20.4658 64.2347 20.1816 64.0472 19.8652C63.8656 19.5488 63.7747 19.1709 63.7747 18.7314C63.7747 17.9463 64.0941 17.3281 64.7327 16.877C65.3714 16.4199 66.2474 16.1914 67.3607 16.1914C68.3978 16.1914 69.4115 16.4023 70.4017 16.8242L69.8831 18.0107C68.9163 17.6123 68.0404 17.4131 67.2552 17.4131C66.5638 17.4131 66.0423 17.5215 65.6908 17.7383C65.3392 17.9551 65.1634 18.2539 65.1634 18.6348C65.1634 18.8926 65.2279 19.1123 65.3568 19.2939C65.4915 19.4756 65.7054 19.6484 65.9984 19.8125C66.2913 19.9766 66.8538 20.2139 67.6859 20.5244C68.8284 20.9404 69.599 21.3594 69.9974 21.7812C70.4017 22.2031 70.6038 22.7334 70.6038 23.3721ZM78.9095 26L78.6195 24.6289H78.5491C78.0687 25.2324 77.5882 25.6426 77.1077 25.8594C76.6331 26.0703 76.0384 26.1758 75.3236 26.1758C74.3685 26.1758 73.6185 25.9297 73.0736 25.4375C72.5345 24.9453 72.265 24.2451 72.265 23.3369C72.265 21.3916 73.8206 20.3721 76.932 20.2783L78.5667 20.2256V19.6279C78.5667 18.8721 78.4027 18.3154 78.0745 17.958C77.7523 17.5947 77.2337 17.4131 76.5189 17.4131C75.7161 17.4131 74.8079 17.6592 73.7943 18.1514L73.346 17.0352C73.8206 16.7773 74.3392 16.5752 74.9017 16.4287C75.47 16.2822 76.0384 16.209 76.6068 16.209C77.7552 16.209 78.6048 16.4639 79.1556 16.9736C79.7122 17.4834 79.9906 18.3008 79.9906 19.4258V26H78.9095ZM75.6136 24.9717C76.5218 24.9717 77.2337 24.7227 77.7493 24.2246C78.2708 23.7266 78.5316 23.0293 78.5316 22.1328V21.2627L77.0726 21.3242C75.9124 21.3652 75.0745 21.5469 74.5589 21.8691C74.0491 22.1855 73.7943 22.6807 73.7943 23.3545C73.7943 23.8818 73.9525 24.2832 74.2689 24.5586C74.5911 24.834 75.0394 24.9717 75.6136 24.9717ZM89.597 26V19.7686C89.597 18.9834 89.4183 18.3975 89.0609 18.0107C88.7034 17.624 88.1439 17.4307 87.3822 17.4307C86.3743 17.4307 85.6361 17.7031 85.1673 18.248C84.6986 18.793 84.4642 19.6924 84.4642 20.9463V26H83.0052V16.3672H84.1917L84.429 17.6855H84.4993C84.7982 17.2109 85.2171 16.8447 85.7562 16.5869C86.2952 16.3232 86.8958 16.1914 87.5579 16.1914C88.7181 16.1914 89.5911 16.4727 90.1771 17.0352C90.763 17.5918 91.056 18.4854 91.056 19.7158V26H89.597ZM100.618 24.708H100.539C99.8656 25.6865 98.8577 26.1758 97.5159 26.1758C96.2562 26.1758 95.2747 25.7451 94.5716 24.8838C93.8743 24.0225 93.5257 22.7979 93.5257 21.21C93.5257 19.6221 93.8773 18.3887 94.5804 17.5098C95.2835 16.6309 96.262 16.1914 97.5159 16.1914C98.8226 16.1914 99.8245 16.666 100.522 17.6152H100.636L100.575 16.9209L100.539 16.2441V12.3242H101.998V26H100.812L100.618 24.708ZM97.7005 24.9541C98.6966 24.9541 99.4173 24.6846 99.8626 24.1455C100.314 23.6006 100.539 22.7246 100.539 21.5176V21.21C100.539 19.8447 100.311 18.8721 99.8538 18.292C99.4027 17.7061 98.679 17.4131 97.6829 17.4131C96.8275 17.4131 96.1712 17.7471 95.7142 18.415C95.263 19.0771 95.0374 20.0146 95.0374 21.2275C95.0374 22.458 95.263 23.3867 95.7142 24.0137C96.1654 24.6406 96.8275 24.9541 97.7005 24.9541ZM113.415 21.1748C113.415 22.7451 113.02 23.9727 112.229 24.8574C111.438 25.7363 110.345 26.1758 108.951 26.1758C108.089 26.1758 107.325 25.9736 106.657 25.5693C105.989 25.165 105.473 24.585 105.11 23.8291C104.746 23.0732 104.565 22.1885 104.565 21.1748C104.565 19.6045 104.957 18.3828 105.743 17.5098C106.528 16.6309 107.618 16.1914 109.012 16.1914C110.36 16.1914 111.429 16.6396 112.22 17.5361C113.017 18.4326 113.415 19.6455 113.415 21.1748ZM106.076 21.1748C106.076 22.4053 106.323 23.3428 106.815 23.9873C107.307 24.6318 108.031 24.9541 108.986 24.9541C109.941 24.9541 110.664 24.6348 111.157 23.9961C111.655 23.3516 111.904 22.4111 111.904 21.1748C111.904 19.9502 111.655 19.0215 111.157 18.3887C110.664 17.75 109.935 17.4307 108.968 17.4307C108.013 17.4307 107.292 17.7441 106.806 18.3711C106.32 18.998 106.076 19.9326 106.076 21.1748Z" fill="white"/>
</svg>
